# xmcd
#
# Track frame offsets: 
#        150
#        13372
#        31152
#        55726
#        75479
#        96556
#        118463
#        136189
#        154933
#        177672
#        199228
#        221484
#        241402
#        249076
#        261445
#        280424
#        298786
#        317561
#
# Disc length: 4488 seconds
#
# Revision: 0
# Processed by: cddbd v1.5.2PL0 Copyright (c) Steve Scherf et al.
# Submitted via: ExactAudioCopyFreeDBPlugin 1.0
#
DISCID=13118612
DTITLE=Xavier Naidoo - Nicht von dieser Welt 2
DYEAR=2016
DGENRE=Blues
TTITLE0=Die Rückkehr
TTITLE1=Renaissance der Liebe
TTITLE2=In meinen Armen
TTITLE3=Der Fels
TTITLE4=Das lass ich nicht zu
TTITLE5=Dem Himmel noch näher
TTITLE6=Kopf feat. Moses Pelham
TTITLE7=Frei
TTITLE8=Wiedersehen
TTITLE9=Ich will leben
TTITLE10=Das Prinzip feat. Moses Pelham
TTITLE11=Latein
TTITLE12=Nicht von dieser Welt - Epilog
TTITLE13=Amazing Grace
TTITLE14=Mit dir
TTITLE15=Zeichen (Dann los)
TTITLE16=Kein Land
TTITLE17=Noch immer mehr als Gold wert
EXTD=
EXTT0=
EXTT1=
EXTT2=
EXTT3=
EXTT4=
EXTT5=
EXTT6=
EXTT7=
EXTT8=
EXTT9=
EXTT10=
EXTT11=
EXTT12=
EXTT13=
EXTT14=
EXTT15=
EXTT16=
EXTT17=
PLAYORDER=
